<?xml version="1.0" encoding="UTF-8"?>
<svg width="100px" height="100px" viewBox="0 0 100 100" version="1.1" xmlns="http://www.w3.org/2000/svg" xmlns:xlink="http://www.w3.org/1999/xlink">
    <!-- Generator: Sketch 54.1 (76490) - https://sketchapp.com -->
    <title>Logo</title>
    <desc>Created with Sketch.</desc>
    <g id="Design" stroke="none" stroke-width="1" fill="none" fill-rule="evenodd">
        <g id="Startseite@1440" transform="translate(-100.000000, -49.000000)" fill="#00A0A8">
            <g id="Header" transform="translate(100.000000, 49.000000)">
                <path d="M51.0334152,58.6115479 L46.4737101,54.5208845 L44.8692875,53.0628993 C43.6872236,53.7918919 42.8850123,54.8044226 42.8850123,56.0599509 C42.8850123,57.9228501 44.8692875,59.4616708 47.402457,59.4616708 C48.5847666,59.4616708 49.8090909,59.1786241 51.0334152,58.6115479 Z M46.5159705,44.3963145 C46.5159705,45.6361179 47.8670762,47.312285 50.6535627,49.8230958 L55.42457,54.2781327 L58.0324324,50.1783784 L65.0019656,50.1783784 L59.8154791,58.4088452 L66.1909091,64.3624079 L57.4088452,64.3624079 L55.5933661,62.7019656 C53.2712531,64.2002457 50.5267813,64.9697789 47.2759214,64.9692875 C40.6471744,64.9692875 36.2985258,61.4869779 36.2982801,56.3031941 C36.2985258,52.9415233 38.3250614,50.5115479 41.1538084,49.0538084 C39.9717445,47.4336609 39.4228501,45.9353808 39.4228501,44.234398 C39.4228501,39.8199017 43.1383292,36.2154791 49.0068796,36.2154791 C54.7068796,36.2154791 58.6334152,39.9914005 58.6334152,45.3815725 L52.2157248,45.3815725 C52.0046683,43.4375921 50.9068796,41.8044226 49.2181818,41.8044226 C47.6980344,41.8044226 46.5159705,42.8169533 46.5159705,44.3963145 Z M99.9520885,29.3233415 L29.27543,0.0479115479 L13.9547912,37.0351351 L22.2945946,55.385258 L30.7297297,36.8255528 L38.817199,36.8255528 L26.0339066,64.3633907 L18.5987715,64.3633907 L10.14914,46.2226044 L0,70.72457 L70.6769042,100 L85.7041769,63.7206388 C83.8859951,64.4395577 81.7014742,64.8262899 79.2334152,64.8262899 C72.5810811,64.8262899 66.5808354,61.8184275 65.885258,54.990172 L73.2769042,54.990172 C73.7552826,57.429484 75.9727273,59.0140049 79.4511057,59.0140049 C82.0599509,59.0140049 83.6253071,58.0388206 83.6253071,56.4941032 C83.6253071,55.5191646 83.0599509,54.5027027 80.4945946,54.0555283 L75.6248157,53.080344 C69.7985258,51.9017199 67.0592138,49.422113 67.0592138,45.0326781 C67.0592138,39.504914 71.8420147,36.0095823 78.7990172,36.0095823 C83.5818182,36.0095823 90.7125307,37.7572482 91.4515971,45.195086 L84.0599509,45.195086 C83.6687961,43.1223587 82.3208845,41.4560197 79.190172,41.455774 C76.5813268,41.455774 74.8857494,42.5125307 74.8857494,44.3009828 C74.8857494,45.8862408 76.1031941,46.5771499 78.4511057,47.0243243 L82.5815725,47.9184275 C86.3115479,48.6714988 89.1194103,49.8840295 90.514742,52.1076167 L99.9520885,29.3233415 L99.9520885,29.3233415 Z" id="Logo"></path>
            </g>
        </g>
    </g>
</svg>